<svg xmlns="http://www.w3.org/2000/svg" width="20" height="20" viewBox="0 0 20 20">
    <path fill="#87D3E7" fill-rule="evenodd" d="M7.561 11.699c-.217 0-.403-.04-.559-.122a1.136 1.136 0 0 1-.396-.346 1.835 1.835 0 0 1-.244-.55 2.692 2.692 0 0 1-.082-.691c0-.556.106-.977.316-1.262.21-.284.531-.427.965-.427.081 0 .17.014.264.04.095.028.19.069.285.123.095.068.186.15.274.244.088.095.166.217.234.366l1.28-.671a2.565 2.565 0 0 0-1.026-1.038c-.427-.23-.932-.346-1.514-.346-.407 0-.78.068-1.118.204a2.636 2.636 0 0 0-.894.59c-.271.271-.471.59-.6.956a3.662 3.662 0 0 0-.193 1.22c0 .476.064.896.193 1.262.129.367.322.678.58.936.27.258.578.455.924.59.346.136.728.204 1.148.204.271 0 .529-.034.773-.102.244-.068.48-.17.711-.305.217-.136.413-.295.59-.478.176-.183.325-.39.447-.62l-1.18-.611a1.507 1.507 0 0 1-.477.62c-.196.143-.43.214-.701.214zm5.508 0a1.21 1.21 0 0 1-.549-.122 1.11 1.11 0 0 1-.406-.346 1.835 1.835 0 0 1-.244-.55 2.692 2.692 0 0 1-.081-.691c0-.556.108-.977.325-1.262.217-.284.535-.427.955-.427.095 0 .19.014.285.04.095.028.196.069.305.123.094.068.182.15.264.244.081.095.156.217.223.366l1.28-.671a2.584 2.584 0 0 0-1.015-1.038c-.42-.23-.929-.346-1.525-.346-.406 0-.776.068-1.108.204a2.893 2.893 0 0 0-.904.59c-.257.271-.454.59-.59.956a3.496 3.496 0 0 0-.203 1.22c0 .476.065.896.193 1.262.13.367.329.678.6.936.257.258.559.455.904.59.346.136.736.204 1.17.204.257 0 .507-.034.751-.102a2.62 2.62 0 0 0 .691-.305 2.732 2.732 0 0 0 1.057-1.099l-1.199-.61c-.108.271-.26.478-.457.62a1.196 1.196 0 0 1-.722.214zm4.024-8.81c-.487-.475-.999-.895-1.534-1.261A9.114 9.114 0 0 0 12.002.173 11.456 11.456 0 0 0 9.98 0c-.691 0-1.355.058-1.992.173a8.752 8.752 0 0 0-1.83.54 9.392 9.392 0 0 0-1.676.915 10.6 10.6 0 0 0-1.515 1.261 10.36 10.36 0 0 0-1.3 1.577 9.907 9.907 0 0 0-.915 1.709A9.977 9.977 0 0 0 0 9.99c0 .692.064 1.353.193 1.984.129.63.315 1.24.559 1.83.244.59.549 1.154.915 1.69.366.535.8 1.054 1.3 1.556.488.488 1 .915 1.535 1.282a9.731 9.731 0 0 0 1.687.925c.59.251 1.2.438 1.83.56.63.122 1.283.183 1.96.183a10.156 10.156 0 0 0 3.862-.753 9.36 9.36 0 0 0 1.718-.926c.549-.373 1.074-.81 1.575-1.312.474-.461.891-.956 1.25-1.485.36-.53.657-1.085.894-1.668a9.632 9.632 0 0 0 .54-1.842c.121-.644.182-1.319.182-2.024 0-.692-.061-1.363-.183-2.014a9.264 9.264 0 0 0-1.463-3.55 11.57 11.57 0 0 0-1.26-1.537zm-1.26 12.838c-.826.814-1.724 1.425-2.693 1.831a7.974 7.974 0 0 1-3.12.61c-1.124 0-2.168-.203-3.13-.61-.962-.406-1.85-1.01-2.662-1.81-.8-.814-1.403-1.7-1.81-2.655a7.848 7.848 0 0 1-.61-3.103c0-1.112.204-2.15.61-3.113.407-.963 1.024-1.858 1.85-2.686.773-.8 1.64-1.4 2.602-1.8.962-.4 2.012-.6 3.15-.6 1.125 0 2.168.2 3.13.6.962.4 1.843 1 2.643 1.8.8.787 1.399 1.665 1.798 2.635.4.97.6 2.024.6 3.164 0 1.153-.196 2.207-.59 3.164a7.548 7.548 0 0 1-1.768 2.573z"/>
</svg>
