<svg xmlns="http://www.w3.org/2000/svg" width="20" height="20" viewBox="0 0 20 20">
    <path fill="#87D3E7" fill-rule="evenodd" d="M10 20c-1.388 0-2.686-.261-3.895-.784a10.246 10.246 0 0 1-3.174-2.134 9.942 9.942 0 0 1-2.147-3.175A9.794 9.794 0 0 1 0 10a9.73 9.73 0 0 1 .784-3.882 10.095 10.095 0 0 1 2.147-3.187A10.135 10.135 0 0 1 6.105.784C7.314.261 8.612 0 10 0s2.686.261 3.895.784a10.135 10.135 0 0 1 3.174 2.147c.909.908 1.624 1.97 2.147 3.187A9.73 9.73 0 0 1 20 10c0 1.388-.261 2.69-.784 3.907a9.942 9.942 0 0 1-2.147 3.175c-.908.9-1.966 1.611-3.174 2.134-1.209.523-2.507.784-3.895.784zM6.71 9.666c.548 0 1.015-.223 1.4-.669.386-.445.579-.985.579-1.62 0-.633-.193-1.177-.578-1.632-.386-.454-.853-.68-1.401-.68-.549 0-1.016.226-1.402.68-.385.455-.578.999-.578 1.633s.193 1.174.578 1.62c.386.445.853.668 1.402.668zm6.58 0c.549 0 1.016-.223 1.402-.669.385-.445.578-.985.578-1.62 0-.633-.193-1.177-.578-1.632-.386-.454-.853-.68-1.402-.68-.548 0-1.015.226-1.4.68-.386.455-.579.999-.579 1.633s.193 1.174.578 1.62c.386.445.853.668 1.401.668zm2.417 2.108a.88.88 0 0 0-.746-.077.94.94 0 0 0-.565.488c-.034.052-.369.416-1.003 1.093-.634.677-1.765 1.015-3.393 1.015-1.611 0-2.738-.338-3.38-1.015-.643-.677-.982-1.041-1.016-1.093a.94.94 0 0 0-.565-.488.94.94 0 0 0-.746.051.941.941 0 0 0-.488.578.97.97 0 0 0 .051.759c.034.068.506.613 1.414 1.632.908 1.02 2.485 1.53 4.73 1.53 2.262 0 3.843-.51 4.743-1.53.9-1.02 1.367-1.564 1.401-1.632a.94.94 0 0 0 .051-.746.94.94 0 0 0-.488-.565z"/>
</svg>
