<svg xmlns="http://www.w3.org/2000/svg" width="22" height="22" viewBox="0 0 22 22">
    <path fill="#87D3E7" fill-rule="evenodd" d="M22 11.3c0 2.452-.7 4.656-2.098 6.614-1.4 1.958-3.206 3.313-5.422 4.064-.257.05-.446.015-.565-.102a.59.59 0 0 1-.18-.44v-3.09c0-.947-.248-1.64-.744-2.08a9.613 9.613 0 0 0 1.468-.264 5.779 5.779 0 0 0 1.346-.57c.463-.264.85-.59 1.16-.975.31-.386.564-.898.76-1.538.195-.64.293-1.374.293-2.204 0-1.182-.377-2.187-1.131-3.017.353-.89.315-1.885-.115-2.989-.267-.087-.654-.034-1.16.162-.506.195-.945.41-1.318.644l-.544.352A9.955 9.955 0 0 0 11 5.486c-.945 0-1.862.127-2.75.38-.153-.107-.356-.239-.609-.395-.253-.156-.651-.344-1.196-.564-.544-.22-.955-.285-1.231-.198-.42 1.104-.454 2.1-.1 2.989-.755.83-1.132 1.835-1.132 3.017 0 .83.098 1.562.293 2.197.196.635.447 1.147.752 1.538.306.39.69.718 1.153.981.463.264.912.454 1.347.571.434.118.924.205 1.468.264-.382.352-.616.854-.702 1.509-.2.097-.415.17-.645.22-.229.048-.5.073-.816.073-.315 0-.628-.105-.938-.315-.31-.21-.575-.515-.795-.916a2.343 2.343 0 0 0-.695-.761c-.281-.196-.518-.313-.709-.352l-.286-.044c-.2 0-.34.022-.416.066-.076.044-.1.1-.071.169a.809.809 0 0 0 .129.205c.057.068.12.127.186.175l.1.074c.21.097.418.283.623.556.206.274.356.523.451.747l.144.337c.124.371.334.671.63.9.296.23.616.377.96.44.343.064.675.098.995.103.32.005.585-.012.795-.051l.33-.059c0 .371.002.806.006 1.304l.008.79a.58.58 0 0 1-.187.44c-.124.117-.315.151-.572.102-2.216-.751-4.023-2.106-5.422-4.064C.7 15.956 0 13.752 0 11.3 0 9.26.492 7.378 1.475 5.654A11.078 11.078 0 0 1 5.48 1.56C7.164.555 9.004.052 11 .052s3.836.503 5.521 1.508a11.078 11.078 0 0 1 4.004 4.094C21.508 7.378 22 9.26 22 11.301z"/>
</svg>
