<svg xmlns="http://www.w3.org/2000/svg" width="24" height="20" viewBox="0 0 24 20">
    <path fill="#87D3E7" fill-rule="evenodd" d="M24 2.375a10.457 10.457 0 0 1-2.467 2.61 14.684 14.684 0 0 1-.563 4.71 14.832 14.832 0 0 1-1.76 3.883 15.151 15.151 0 0 1-2.809 3.29c-1.086.952-2.396 1.713-3.929 2.28C10.94 19.716 9.3 20 7.553 20 4.802 20 2.284 19.245 0 17.734c.355.042.751.063 1.188.063 2.284 0 4.32-.719 6.106-2.156a4.718 4.718 0 0 1-2.863-1.008 4.935 4.935 0 0 1-1.736-2.492c.335.052.645.078.93.078.436 0 .867-.058 1.294-.172-1.137-.24-2.079-.82-2.825-1.742S.974 8.313.974 7.094V7.03c.691.396 1.432.61 2.224.64a4.996 4.996 0 0 1-1.599-1.796 5.019 5.019 0 0 1-.594-2.406c0-.917.223-1.766.67-2.547A14.02 14.02 0 0 0 6.16 4.648a13.436 13.436 0 0 0 5.657 1.555 5.746 5.746 0 0 1-.122-1.156c0-1.396.48-2.586 1.44-3.57C14.094.492 15.254 0 16.615 0c1.42 0 2.618.531 3.593 1.594A9.497 9.497 0 0 0 23.33.375a4.88 4.88 0 0 1-2.162 2.781A9.605 9.605 0 0 0 24 2.375z"/>
</svg>
