<svg xmlns="http://www.w3.org/2000/svg" xmlns:xlink="http://www.w3.org/1999/xlink" width="96" height="96" viewBox="0 0 96 96">
    <defs>
        <path id="b" d="M832 67c12.455 0 23.07 4.52 31.842 13.56C872.614 89.6 877 100.482 877 113.205c0 10.045-2.88 19.085-8.638 27.12-5.76 8.037-13.125 13.595-22.099 16.675h-.803c-1.607 0-2.41-.804-2.41-2.41 0-.135.033-1.641.1-4.52.067-2.88.1-5.525.1-7.936 0-3.884-1.071-6.763-3.214-8.638 6.16-.804 11.15-2.78 14.966-5.927 3.817-3.147 5.726-8.739 5.726-16.774 0-4.822-1.54-8.974-4.62-12.456 1.338-3.884 1.205-7.968-.403-12.254h-1.004c-3.08 0-6.897 1.607-11.451 4.821-3.884-1.071-7.634-1.607-11.25-1.607-3.616 0-7.366.536-11.25 1.607-4.554-3.214-8.37-4.821-11.45-4.821h-1.005c-1.608 4.286-1.741 8.37-.402 12.254-3.08 3.482-4.62 7.634-4.62 12.456 0 8.035 1.874 13.627 5.624 16.774 3.75 3.148 8.706 5.123 14.866 5.927-1.473 1.473-2.41 3.549-2.812 6.227-1.607.804-3.348 1.206-5.223 1.206-3.349 0-5.96-1.675-7.835-5.023-1.741-2.946-4.085-4.553-7.031-4.821-2.813 0-2.88.937-.201 2.812 2.009 1.072 3.683 3.349 5.022 6.83.134.536.402 1.173.804 1.91.401.736 1.506 1.707 3.314 2.912 1.808 1.205 3.985 1.808 6.53 1.808 1.874 0 3.348-.134 4.419-.402v7.835c0 1.473-.737 2.21-2.21 2.21h-.803c-9.108-3.08-16.507-8.605-22.2-16.574-5.691-7.968-8.537-17.042-8.537-27.22 0-12.724 4.386-23.606 13.158-32.646C808.931 71.52 819.545 67 832 67zm-35.458 67.583c-.886-1.129-1.12-2.362-.703-3.7.67-2.008 2.344-3.012 5.023-3.012h.2c2.545.133 4.688 1.004 6.43 2.611-4.956-4.42-7.434-10.982-7.434-19.687 0-5.09 1.406-9.51 4.219-13.26-.938-4.151-.603-8.303 1.004-12.455l.603-1.607 1.406-.402c.134 0 .402-.033.804-.1a7.32 7.32 0 0 1 1.205-.1c3.482 0 7.5 1.473 12.054 4.42A47.197 47.197 0 0 1 832 86.084c3.616 0 7.165.402 10.647 1.205 4.554-2.946 8.572-4.42 12.054-4.42.402 0 .803.034 1.205.101s.67.1.804.1l1.406.402.603 1.406c1.607 4.152 1.942 8.371 1.004 12.657 2.813 3.75 4.219 8.17 4.219 13.259 0 14.062-6.16 22.433-18.482 25.111.67 1.741 1.004 3.75 1.004 6.027v11.45c3.75-1.472 7.165-3.347 10.246-5.624a45.443 45.443 0 0 0 9.04-9.241c5.357-7.634 8.036-16.072 8.036-25.313 0-6.16-1.072-11.785-3.215-16.875-1.875-4.821-4.888-9.375-9.04-13.66-3.482-3.616-7.902-6.63-13.259-9.04-5.357-2.277-10.78-3.416-16.272-3.416-5.491 0-10.915 1.139-16.272 3.415-5.357 2.411-9.777 5.425-13.26 9.04-4.285 4.42-7.298 8.974-9.04 13.661-2.142 5.09-3.214 10.715-3.214 16.875 0 7.78 1.899 14.99 5.696 21.631l.632-.253z"/>
        <filter id="a" width="109.4%" height="109.4%" x="-3.6%" y="-3.6%" filterUnits="objectBoundingBox">
            <feMorphology in="SourceAlpha" operator="dilate" radius=".75" result="shadowSpreadOuter1"/>
            <feOffset dx="1" dy="1" in="shadowSpreadOuter1" result="shadowOffsetOuter1"/>
            <feGaussianBlur in="shadowOffsetOuter1" result="shadowBlurOuter1" stdDeviation="1"/>
            <feComposite in="shadowBlurOuter1" in2="SourceAlpha" operator="out" result="shadowBlurOuter1"/>
            <feColorMatrix in="shadowBlurOuter1" values="0 0 0 0 0 0 0 0 0 0 0 0 0 0 0 0 0 0 0.25 0"/>
        </filter>
    </defs>
    <g fill="none" fill-rule="evenodd" transform="translate(-785 -65)">
        <use fill="#000" filter="url(#a)" xlink:href="#b"/>
        <use fill="#C2E8F9" stroke="#C2E8F9" stroke-width="1.5" xlink:href="#b"/>
    </g>
</svg>
