<svg xmlns="http://www.w3.org/2000/svg" width="20" height="20" viewBox="0 0 20 20">
    <path fill="#87D3E7" fill-rule="evenodd" d="M20 17.285c0 .408-.142.755-.427 1.04l-1.237 1.248c-.3.285-.65.427-1.051.427-.408 0-.755-.142-1.04-.427l-4.194-4.206a1.373 1.373 0 0 1-.44-1.04c0-.408.166-.778.498-1.11L9.15 10.26l-1.456 1.456a.535.535 0 0 1-.393.162.535.535 0 0 1-.393-.162l.145.138c.08.077.129.128.144.15.016.024.054.068.116.133.061.066.1.118.115.156.016.039.039.091.07.156.03.066.052.13.063.191a1.134 1.134 0 0 1-.306.994 8.348 8.348 0 0 0-.19.208 7.273 7.273 0 0 1-.22.237 3.861 3.861 0 0 1-.214.19 1.37 1.37 0 0 1-.254.18c-.07.034-.154.069-.254.103-.1.035-.2.052-.3.052a1.07 1.07 0 0 1-.786-.323L.324 9.567A1.07 1.07 0 0 1 0 8.78c0-.1.017-.2.052-.3.035-.1.07-.185.104-.255a1.37 1.37 0 0 1 .18-.254c.084-.1.147-.171.19-.213.042-.043.121-.116.237-.22a8.35 8.35 0 0 0 .208-.19 1.121 1.121 0 0 1 .993-.307.792.792 0 0 1 .19.064c.066.03.118.054.157.069.038.015.09.054.156.116.065.061.11.1.133.115.023.016.073.064.15.145.077.08.123.129.139.144a.535.535 0 0 1-.162-.393c0-.154.054-.285.162-.393l4.02-4.02a.535.535 0 0 1 .393-.162c.154 0 .285.054.393.162a13.285 13.285 0 0 0-.144-.14 1.34 1.34 0 0 1-.145-.15 1.359 1.359 0 0 0-.115-.132.578.578 0 0 1-.116-.156 3.045 3.045 0 0 0-.07-.156.792.792 0 0 1-.063-.19A1.134 1.134 0 0 1 7.348.97c.023-.024.087-.093.191-.208.104-.116.177-.195.22-.237.042-.043.113-.106.213-.19.1-.086.185-.145.254-.18.07-.035.155-.07.255-.104.1-.035.2-.052.3-.052.308 0 .57.108.786.324l4.714 4.714c.215.215.323.477.323.785 0 .1-.017.2-.052.3-.034.1-.069.185-.104.255-.034.07-.094.154-.179.254-.085.1-.148.171-.19.214a7.271 7.271 0 0 1-.237.22 8.35 8.35 0 0 0-.208.19 1.12 1.12 0 0 1-.994.306.792.792 0 0 1-.19-.063 3.05 3.05 0 0 0-.157-.07.578.578 0 0 1-.156-.115 1.36 1.36 0 0 0-.132-.116 1.34 1.34 0 0 1-.15-.144c-.078-.081-.124-.13-.14-.145a.535.535 0 0 1 .163.393.535.535 0 0 1-.162.393L10.26 9.151l2.958 2.958c.331-.332.7-.497 1.109-.497.4 0 .751.142 1.051.427l4.195 4.194c.285.3.427.651.427 1.052z"/>
</svg>
