<svg xmlns="http://www.w3.org/2000/svg" width="103" height="88" viewBox="0 0 103 88">
    <defs>
        <filter id="a" width="108.1%" height="108%" x="-3.5%" y="-2.9%" filterUnits="objectBoundingBox">
            <feOffset dy="1" in="SourceAlpha" result="shadowOffsetOuter1"/>
            <feGaussianBlur in="shadowOffsetOuter1" result="shadowBlurOuter1" stdDeviation="1"/>
            <feColorMatrix in="shadowBlurOuter1" result="shadowMatrixOuter1" values="0 0 0 0 0 0 0 0 0 0 0 0 0 0 0 0 0 0 0.2 0"/>
            <feMerge>
                <feMergeNode in="shadowMatrixOuter1"/>
                <feMergeNode in="SourceGraphic"/>
            </feMerge>
        </filter>
        <linearGradient id="b" x1="24.527%" x2="72.832%" y1="97.654%" y2="-2.118%">
            <stop offset="0%" stop-color="#39A2EE"/>
            <stop offset="30.585%" stop-color="#31ABDB"/>
            <stop offset="100%" stop-color="#00DC6D"/>
        </linearGradient>
    </defs>
    <g fill="none" fill-rule="nonzero" filter="url(#a)" transform="translate(2 -2)">
        <path fill="url(#b)" d="M91.035 25.202l5.103.906c2.126.377 3.654-1.964 2.422-3.71L85.994 4.589c-1.183-1.678-3.525-2.093-5.229-.928L62.672 16.029c-1.774 1.213-1.173 3.931.953 4.309l6.908 1.226a75.677 75.677 0 0 1-4.889 17.53v.003c-2.702 6.5-6.706 13.48-12.644 19.963a31.984 31.984 0 0 0 2.765 1.749A31.986 31.986 0 0 0 60.554 63c5.716-3.466 11.218-7.757 16.093-13.083h.001c5.997-6.547 11.046-14.656 14.387-24.715z"/>
        <path fill="#FDFDFD" d="M41.045 3.325L2.629 13.62c-1.385.37-2.115 1.765-1.745 3.145l18.072 67.448c.37 1.38 1.7 2.222 3.085 1.851l47.193-12.645a2.591 2.591 0 0 0 1.838-3.17l-15.73-58.705-14.297-8.218z"/>
        <path fill="#D7DEED" d="M55.342 11.543l-9.874 2.646a1.458 1.458 0 0 1-1.788-1.027l-2.635-9.837 14.297 8.218z"/>
        <g fill="#4AA3FF">
            <path d="M20.479 25.66l-7.245 1.94a1.25 1.25 0 0 1-.647-2.414l7.245-1.941a1.25 1.25 0 0 1 .647 2.414zM25.718 30.726l-10.866 2.912a1.25 1.25 0 0 1-.647-2.415L25.07 28.31a1.25 1.25 0 0 1 .647 2.415zM30.548 29.432a1.314 1.314 0 0 1-.951-.12 1.314 1.314 0 0 1-.58-.764 1.314 1.314 0 0 1 .12-.951c.328-.567 1.149-.787 1.715-.46.279.171.496.45.58.764.084.314.035.663-.12.95-.172.28-.45.497-.764.58zM45.037 25.55l-9.66 2.588a1.25 1.25 0 0 1-.646-2.415l9.659-2.588a1.25 1.25 0 0 1 .647 2.414zM19.886 51.943a1.314 1.314 0 0 1-.951-.12 1.314 1.314 0 0 1-.58-.764 1.314 1.314 0 0 1 .12-.951c.328-.567 1.149-.787 1.715-.46.279.171.493.438.58.764.084.314.035.663-.12.95-.172.28-.45.497-.764.58zM24.804 70.295a1.314 1.314 0 0 1-.951-.12 1.314 1.314 0 0 1-.58-.764 1.314 1.314 0 0 1 .12-.95c.327-.567 1.148-.787 1.715-.46.278.171.492.437.58.763.084.314.035.664-.121.951-.171.28-.45.496-.763.58zM34.379 48.075l-9.66 2.589a1.25 1.25 0 0 1-.646-2.415l9.659-2.588a1.25 1.25 0 0 1 .647 2.414zM39.297 66.428l-9.66 2.588a1.25 1.25 0 0 1-.647-2.415l9.66-2.588a1.25 1.25 0 0 1 .647 2.415zM43.088 32.283l-26.563 7.118a1.25 1.25 0 0 1-.647-2.415l26.563-7.118a1.25 1.25 0 0 1 .647 2.415zM46.453 44.84l-7.244 1.941a1.25 1.25 0 0 1-.647-2.414l7.244-1.942a1.25 1.25 0 0 1 .647 2.415zM23.167 44.868l-4.83 1.294a1.25 1.25 0 0 1-.647-2.415l4.83-1.294a1.25 1.25 0 0 1 .647 2.415zM28.084 63.22l-4.83 1.295a1.25 1.25 0 0 1-.646-2.415l4.83-1.294a1.25 1.25 0 0 1 .646 2.415zM40.07 40.339l-12.074 3.235a1.25 1.25 0 0 1-.647-2.415l12.074-3.235a1.25 1.25 0 0 1 .648 2.415zM44.988 58.691l-12.074 3.236a1.25 1.25 0 0 1-.647-2.415l12.074-3.235a1.25 1.25 0 0 1 .647 2.414zM52.386 37.039l-7.969 2.135a1.25 1.25 0 0 1-.647-2.415l7.969-2.135a1.25 1.25 0 0 1 .647 2.415zM56.338 55.65l-7.003 1.877a1.25 1.25 0 0 1-.647-2.415l7.003-1.877a1.25 1.25 0 0 1 .647 2.415z"/>
        </g>
    </g>
</svg>
