<svg xmlns="http://www.w3.org/2000/svg" xmlns:xlink="http://www.w3.org/1999/xlink" width="79" height="79" viewBox="0 0 79 79">
    <defs>
        <path id="b" d="M229.07 122.48a2.93 2.93 0 0 1 2.93 2.93v17.357c0 3.988-3.245 7.233-7.233 7.233h-60.534c-3.988 0-7.233-3.245-7.233-7.233V125.41a2.93 2.93 0 1 1 5.86 0v17.357c0 .758.616 1.374 1.373 1.374h60.534c.757 0 1.374-.617 1.374-1.374V125.41a2.93 2.93 0 0 1 2.93-2.93zm-10.922-23.753a2.93 2.93 0 0 1-2.131 4.94h-9.98v31.64a2.93 2.93 0 0 1-2.93 2.93h-17.214a2.93 2.93 0 0 1-2.93-2.93v-31.64h-9.98a2.93 2.93 0 0 1-2.13-4.94l21.516-22.808a2.93 2.93 0 0 1 4.262 0l21.517 22.808zm-15.041-.92h6.118L194.5 82.2l-14.725 15.609h6.118a2.93 2.93 0 0 1 2.93 2.93v31.64h11.354v-31.64a2.93 2.93 0 0 1 2.93-2.93z"/>
        <filter id="a" width="109.3%" height="109.3%" x="-3.3%" y="-3.3%" filterUnits="objectBoundingBox">
            <feOffset dx="1" dy="1" in="SourceAlpha" result="shadowOffsetOuter1"/>
            <feGaussianBlur in="shadowOffsetOuter1" result="shadowBlurOuter1" stdDeviation="1"/>
            <feColorMatrix in="shadowBlurOuter1" values="0 0 0 0 0 0 0 0 0 0 0 0 0 0 0 0 0 0 0.25 0"/>
        </filter>
    </defs>
    <g fill="none" fill-rule="nonzero" transform="translate(-156 -74)">
        <use fill="#000" filter="url(#a)" xlink:href="#b"/>
        <use fill="#C2E8F9" fill-rule="evenodd" xlink:href="#b"/>
    </g>
</svg>
