<svg xmlns="http://www.w3.org/2000/svg" xmlns:xlink="http://www.w3.org/1999/xlink" width="1024" height="583" viewBox="0 0 1024 583">
    <defs>
        <radialGradient id="a" cx="51.008%" cy="100%" r="57.461%" fx="51.008%" fy="100%" gradientTransform="matrix(.5371 0 0 1.04575 .236 -.046)">
            <stop offset="0%" stop-color="#535382"/>
            <stop offset="100%" stop-color="#1A1940"/>
        </radialGradient>
        <circle id="b" cx="30" cy="30" r="30"/>
    </defs>
    <g fill="none" fill-rule="evenodd">
        <path fill="url(#a)" d="M0 0h1024v550H0z"/>
        <path fill="#558194" d="M32.187 57.186l-3.253.617-1.3 3.008-2.173-2.47-3.292.392 1.084-3.088-1.99-2.61 3.254-.616 1.3-3.008 2.173 2.47 3.293-.392-1.086 3.088z"/>
        <path fill="#BEC1BE" fill-opacity=".5" d="M84.663 135.112l-2.159 1.35-.089 2.55-2.253-1.199-2.249 1.198-.09-2.549-2.16-1.35 2.16-1.35.09-2.55 2.25 1.2 2.252-1.198.09 2.548z"/>
        <path fill="#88A4B8" fill-opacity=".5" d="M938.4 376.878l.04 2.135 1.862 1.162-1.903 1.102-.117 2.135-1.941-1.034-1.976.97-.04-2.136-1.862-1.164 1.904-1.101.116-2.135 1.941 1.037z"/>
        <path fill="#558194" d="M823.974 300.66l-.484 1.895 1.574 1.402-2.173.59-.641 1.864-1.685-1.305-2.214.458.486-1.895-1.574-1.403 2.173-.59.64-1.864 1.686 1.308zM989.263 340.658l-1.312.146-.618 1.207-.778-1.104-1.322.053.535-1.245-.704-1.153 1.312-.146.619-1.205.78 1.102 1.32-.05-.535 1.242z"/>
        <path fill="#BEC1BE" fill-opacity=".5" d="M53.221 314.735l1.019 2.545-1.577 2.254 2.749.405 1.194 2.472 1.731-2.14 2.768.214-1.017-2.543 1.575-2.255-2.748-.404-1.196-2.472-1.728 2.14z"/>
        <path fill="#558194" d="M581.273 136.775l.746 2.067-1.155 1.832 2.014.33.876 2.007 1.27-1.738 2.029.177-.746-2.07 1.156-1.832-2.014-.33-.88-2.006-1.266 1.738zM137.327 289.853l.475 1.113-.74.985 1.286.18.557 1.08.806-.936 1.294.095-.476-1.115.735-.985-1.281-.178-.558-1.081-.808.937zM97.327 369.853l.475 1.113-.74.985 1.286.18.557 1.08.806-.936 1.294.095-.476-1.115.735-.985-1.281-.178-.558-1.081-.808.937zM285.063 150.445l-2.439.257-1.144 2.11-1.447-1.93-2.453.092.991-2.181-1.308-2.02 2.44-.255 1.146-2.107 1.45 1.926 2.45-.088-.99 2.175zM983.108 145.393l-1.844.5 1.336 1.191-.413 1.608 1.877-.389 1.43 1.109.543-1.583 1.845-.5-1.336-1.19.413-1.607-1.88.39-1.428-1.11z"/>
        <path fill="#88D4E7" fill-opacity=".6" d="M908.064 307.611l-2.592 1.663-.105 3.137-2.702-1.474-2.704 1.474-.105-3.137-2.593-1.663 2.593-1.66.105-3.14 2.704 1.474 2.702-1.474.105 3.14z"/>
        <path fill="#558194" d="M730.55 229.303c0 2.217-1.828 4.015-4.083 4.015-2.252 0-4.082-1.798-4.082-4.015 0-2.218 1.83-4.015 4.082-4.015 2.255 0 4.083 1.797 4.083 4.015M927.46 210.945c0 .772-.638 1.398-1.426 1.398a1.41 1.41 0 0 1-1.422-1.398c0-.772.637-1.401 1.422-1.401.788 0 1.425.629 1.425 1.4"/>
        <path fill="#BCE5F1" d="M179.182 259.39c0 .919-.759 1.667-1.694 1.667-.936 0-1.695-.748-1.695-1.667 0-.92.76-1.667 1.695-1.667s1.694.748 1.694 1.667"/>
        <path fill="#558194" d="M140.625 186.117c0 1.825-1.504 3.303-3.36 3.303-1.856 0-3.36-1.478-3.36-3.303 0-1.826 1.504-3.304 3.36-3.304 1.856 0 3.36 1.478 3.36 3.304M34.008 220.812c0 2.719-2.24 4.922-5.005 4.922-2.763 0-5.003-2.203-5.003-4.922 0-2.716 2.24-4.92 5.003-4.92 2.765 0 5.005 2.204 5.005 4.92"/>
        <path fill="#BCE5F1" d="M275.314 230.7c0 1.355-1.117 2.454-2.494 2.454-1.378 0-2.494-1.1-2.494-2.453 0-1.355 1.116-2.454 2.494-2.454 1.377 0 2.494 1.099 2.494 2.454"/>
        <path fill="#558194" d="M175.314 350.7c0 1.355-1.117 2.454-2.494 2.454-1.378 0-2.494-1.1-2.494-2.453 0-1.355 1.116-2.454 2.494-2.454 1.377 0 2.494 1.099 2.494 2.454"/>
        <path fill="#558194" fill-opacity=".5" d="M335.314 470.7c0 1.355-1.117 2.454-2.494 2.454-1.378 0-2.494-1.1-2.494-2.453 0-1.355 1.116-2.454 2.494-2.454 1.377 0 2.494 1.099 2.494 2.454M363.284 479.702c0 .803-.663 1.455-1.48 1.455a1.467 1.467 0 0 1-1.478-1.455c0-.804.662-1.455 1.479-1.455.816 0 1.479.651 1.479 1.455"/>
        <path fill="#558194" d="M697.327 429.853l.475 1.113-.74.985 1.286.18.557 1.08.806-.936 1.294.095-.476-1.115.735-.985-1.281-.178-.558-1.081-.808.937z"/>
        <path fill="#B8E4ED" d="M749.182 389.39c0 .919-.759 1.667-1.694 1.667-.936 0-1.695-.748-1.695-1.667 0-.92.76-1.667 1.695-1.667s1.694.748 1.694 1.667"/>
        <path fill="#558194" d="M437.327 149.853l.475 1.113-.74.985 1.286.18.557 1.08.806-.936 1.294.095-.476-1.115.735-.985-1.281-.178-.558-1.081-.808.937zM489.182 109.39c0 .919-.759 1.667-1.694 1.667-.936 0-1.695-.748-1.695-1.667 0-.92.76-1.667 1.695-1.667s1.694.748 1.694 1.667M929.182 119.39c0 .919-.759 1.667-1.694 1.667-.936 0-1.695-.748-1.695-1.667 0-.92.76-1.667 1.695-1.667s1.694.748 1.694 1.667M843.284 369.702c0 .803-.663 1.455-1.48 1.455a1.467 1.467 0 0 1-1.478-1.455c0-.804.662-1.455 1.479-1.455.816 0 1.479.651 1.479 1.455M677.622 119.502c0 1.622-1.338 2.935-2.986 2.935-1.648 0-2.984-1.313-2.984-2.935 0-1.62 1.336-2.935 2.984-2.935s2.986 1.314 2.986 2.935M156.233 169.41c0 .928-.764 1.68-1.706 1.68-.944 0-1.709-.752-1.709-1.68 0-.927.765-1.68 1.709-1.68.942 0 1.706.753 1.706 1.68"/>
        <path fill="#558194" fill-opacity=".5" d="M987.598 482.524c-2.298 0-4.16-1.831-4.16-4.092 0-2.261 1.862-4.093 4.16-4.093s4.162 1.832 4.162 4.093c0 2.26-1.864 4.092-4.162 4.092"/>
        <path fill="#558194" d="M981.208 228.956l-2.187.234-1.025 1.913-1.297-1.75-2.201.085.889-1.98-1.17-1.832 2.185-.234 1.028-1.91 1.3 1.748 2.197-.079-.889 1.973zM879.696 253.32c0 1.23-1.012 2.225-2.263 2.225-1.25 0-2.261-.996-2.261-2.225s1.012-2.226 2.26-2.226c1.252 0 2.264.997 2.264 2.226"/>
        <path fill="#558194" d="M723.768 173.978c0 1.446-1.193 2.62-2.665 2.62-1.471 0-2.663-1.174-2.663-2.62 0-1.446 1.192-2.62 2.663-2.62 1.472 0 2.665 1.174 2.665 2.62" opacity=".5"/>
        <path fill="#B8E4ED" fill-opacity=".6" d="M862.708 380.713c0 1.027-.846 1.86-1.892 1.86-1.045 0-1.89-.833-1.89-1.86 0-1.027.845-1.862 1.89-1.862 1.046 0 1.892.835 1.892 1.862"/>
        <path fill="#558194" fill-opacity=".5" d="M925.708 454.713c0 1.027-.846 1.86-1.892 1.86-1.045 0-1.89-.833-1.89-1.86 0-1.027.845-1.862 1.89-1.862 1.046 0 1.892.835 1.892 1.862"/>
        <path fill="#558194" d="M348.886 46.085l-1.738 1.069-.071 2.016-1.812-.947-1.811.947-.073-2.016-1.74-1.069 1.74-1.067.073-2.018 1.81.948 1.813-.947.07 2.017z"/>
        <path fill="#BCE5F1" fill-opacity=".6" d="M422.935 184.082c0 1.481-1.22 2.682-2.725 2.682-1.508 0-2.729-1.201-2.729-2.682 0-1.481 1.221-2.683 2.73-2.683 1.504 0 2.724 1.202 2.724 2.683"/>
        <path fill="#558194" fill-opacity=".5" d="M997.763 325.205c0 1.854-1.53 3.356-3.412 3.356-1.887 0-3.412-1.502-3.412-3.356 0-1.853 1.525-3.356 3.412-3.356 1.883 0 3.412 1.503 3.412 3.356"/>
        <g>
            <path fill="#88D4E7" fill-rule="nonzero" d="M893.082 151.535a58.477 58.477 0 0 0-28.993-7.692c-23.658-.003-44.987 14.248-54.04 36.105-9.051 21.857-4.044 47.014 12.688 63.74 16.732 16.724 41.893 21.721 63.747 12.66 21.853-9.061 36.096-30.396 36.083-54.053v.03a58.476 58.476 0 0 0-23.069-46.544 3.965 3.965 0 0 1-6.417-4.246z"/>
            <path fill="#5EC9DF" fill-rule="nonzero" d="M911.206 197.26c-.003 25.8-20.92 46.713-46.72 46.713-25.8 0-46.717-20.913-46.72-46.713-.003-25.8 20.907-46.718 46.708-46.724a46.72 46.72 0 0 1 46.732 46.724z"/>
            <path fill="#3CBECC" fill-rule="nonzero" d="M847.915 240.2a4.248 4.248 0 1 1-8.495 0 4.248 4.248 0 0 1 8.495 0zM908.646 182.294a8.64 8.64 0 1 1-17.28 0 8.64 8.64 0 0 1 17.28 0z"/>
            <path fill="#B8E4ED" fill-rule="nonzero" d="M886.416 247.836a5.24 5.24 0 0 0-2.884 9.613 58.118 58.118 0 0 0 8.051-3.545 5.215 5.215 0 0 0-5.173-6.074l.006.006z"/>
            <path stroke="#BCE5F1" stroke-linecap="round" stroke-linejoin="round" stroke-width="4.8" d="M807.468 227.283c32.666 5.203 81.14-2.403 115.25-42.003"/>
            <path fill="#3CBECC" fill-rule="nonzero" d="M840.02 162.251c.763 1.13-1.081 3.72-4.127 5.786-3.046 2.067-6.135 2.842-6.898 1.7-.763-1.141 1.082-3.718 4.128-5.785 3.046-2.067 6.134-2.83 6.903-1.7h-.006z"/>
            <path fill="#7574B7" fill-rule="nonzero" d="M819.484 141.872s-49.628 11.782-40.856 5.912c9.013-6.008 23.03-35.448 23.03-35.448l17.826 29.536z"/>
            <path stroke="#CCEBF4" stroke-linecap="round" stroke-linejoin="round" stroke-width="2.4" d="M833.796 165.051l-31.537-52.45"/>
            <path fill="#F3D55A" fill-rule="nonzero" d="M793 133.285l3.031 5.29 1.092-.653c.055-.11.115-.217.181-.321a2.357 2.357 0 0 1 .419-.488c.081-.069.168-.132.26-.188l.164-.089.17-.072.169-.05h.17c.152-.013.306.002.452.045.167.049.324.126.464.227.173.126.328.273.464.438.174.21.33.434.463.67.184.307.324.637.419.98.078.276.101.564.068.848-.03.245-.122.479-.266.682a1.686 1.686 0 0 1-.566.493l-.226.105-.226.077-.232.05h-.232c-.109.009-.219.009-.328 0a2.524 2.524 0 0 1-.673-.171 4.684 4.684 0 0 1-.35-.156l-.295 1.546c.159.078.323.144.481.2a4.824 4.824 0 0 0 .979.243c.165.012.332.012.497 0a3.502 3.502 0 0 0 1.533-.404 3.65 3.65 0 0 0 1.21-.975c.31-.393.525-.85.628-1.335a3.887 3.887 0 0 0 0-1.568 5.39 5.39 0 0 0-.645-1.662 6.425 6.425 0 0 0-.786-1.108 4.412 4.412 0 0 0-.86-.743 3.113 3.113 0 0 0-.899-.404 2.48 2.48 0 0 0-1.98.305 2.485 2.485 0 0 0-.57.493 3.473 3.473 0 0 0-.458.687l-1.477-2.554 3.111-2.089-.679-1.634-4.677 3.285zM804.89 125l-5.89 4.03.93 1.568 3.984-2.62L805.875 139l2.125-.266-2.187-12.215-.924-1.519"/>
        </g>
        <g opacity=".8" transform="translate(82 211)">
            <mask id="c" fill="#fff">
                <use xlink:href="#b"/>
            </mask>
            <use fill="#F3F4EC" xlink:href="#b"/>
            <circle cx="29.5" cy="27.5" r="24.5" fill="#E3E5D7" fill-opacity=".75" mask="url(#c)"/>
            <circle cx="53" cy="21" r="12" fill="#D2D6C5" mask="url(#c)"/>
            <circle cx="6.5" cy="27.5" r="3.5" fill="#D2D6C5" mask="url(#c)"/>
            <circle cx="30.5" cy="49.5" r="6.5" fill="#D2D6C5" mask="url(#c)"/>
        </g>
        <g transform="translate(480 518)">
            <circle cx="32.5" cy="32.5" r="32.5" fill="#59B5B0"/>
            <path fill="#116362" d="M44.577 26.715c.913-.933 1.825-.953 2.738-.058.913.894.913 1.77 0 2.625L34.37 41.417c-.332.389-.788.583-1.369.583-.58 0-1.037-.194-1.37-.583L18.686 29.282c-.913-.856-.913-1.73 0-2.625s1.825-.875 2.738.058L33 37.449l11.577-10.734z"/>
        </g>
    </g>
</svg>
