<svg xmlns="http://www.w3.org/2000/svg" width="159" height="221" viewBox="0 0 159 221">
    <path fill="#2E2C72" fill-rule="evenodd" d="M60.953 63.392a10.798 10.798 0 0 0-3.549-2.944c-1.379-.708-2.938-1.133-4.632-1.242a14.166 14.166 0 0 0-1.018-.024 11.826 11.826 0 0 0-1.038.066c-.35.035-.699.09-1.052.157a13.924 13.924 0 0 0-2.136.594c-.355.13-.714.28-1.07.44l.312-10.926 15.147 1.26 1.016-5.927-23.714-2.262-.712 23.393 5.772.285c.343-.162.67-.31.992-.439.32-.131.63-.243.936-.34a9.528 9.528 0 0 1 2.232-.441 10.365 10.365 0 0 1 1.307-.006c.95.048 1.832.223 2.619.552.782.331 1.47.813 2.033 1.48.563.665 1.004 1.514 1.294 2.57.291 1.057.431 2.329.395 3.84-.03 1.247-.198 2.365-.489 3.352-.29.989-.703 1.846-1.227 2.561a6.36 6.36 0 0 1-1.909 1.74c-.74.439-1.586.732-2.523.874-.121.02-.245.033-.37.047a7.756 7.756 0 0 1-.382.032 8.184 8.184 0 0 1-.79.018c-.87-.016-1.691-.125-2.463-.327a9.447 9.447 0 0 1-2.198-.879 10.45 10.45 0 0 1-1.958-1.409 14.171 14.171 0 0 1-1.754-1.915l-4.938 4.532a21.407 21.407 0 0 0 2.64 2.683 16.697 16.697 0 0 0 3.054 2.065 15.489 15.489 0 0 0 3.537 1.33c1.265.307 2.623.474 4.09.486a19.971 19.971 0 0 0 2.477-.136c.265-.031.527-.07.784-.111 1.87-.31 3.565-.901 5.052-1.732a13.493 13.493 0 0 0 3.806-3.174 14.194 14.194 0 0 0 2.44-4.379c.568-1.632.89-3.436.935-5.378.05-2.184-.2-4.153-.704-5.888-.505-1.734-1.27-3.235-2.244-4.478zm8.393-11.765l15.577 1.286-13.471 33.375 6.499 2.462 13.896-35.8.084-5.357-22.461-2.129-.124 6.163zm-42.73 62.11l.134-108.08c16.515 10.61 92.413 58.287 125.167 59.841 1.228.058 2.03.174 2.543.285-7.06 7.098-69.453 29.445-127.843 47.954zm17.603 98.108c-.14 2.525-8.173 5.757-20.45 5.08-12.28-.677-19.912-4.777-19.777-7.302.132-2.388 7.363-5.404 18.527-5.151l-.002 5.707a1.995 1.995 0 0 0 3.992 0l.002-5.484c11.06.993 17.84 4.77 17.708 7.15zM158.945 64.932c-.405-3.111-4.912-3.326-6.836-3.416C117.112 59.856 26.762.919 25.854.326a2.006 2.006 0 0 0-2.042-.089 1.99 1.99 0 0 0-1.05 1.752l-.002.99a2.013 2.013 0 0 0-.185.82l-.056 196.68c-11.27-.243-22.161 2.646-22.51 8.922v.002c-.372 6.678 11.562 10.84 23.538 11.501 1.132.066 2.267.096 3.395.096 10.798 0 20.926-2.886 21.261-8.936.351-6.334-10.369-10.403-21.692-11.365l.024-82.758c6.479-2.06 36.137-11.547 65.364-21.816 67.996-23.891 67.401-28.462 67.046-31.193z" opacity=".12"/>
</svg>
