<svg xmlns="http://www.w3.org/2000/svg" width="229" height="147" viewBox="0 0 229 147">
    <g fill="none" fill-rule="nonzero" transform="rotate(15 121.902 71.004)">
        <ellipse cx="118.707" cy="57.746" fill="#4EC1DB" rx="50.367" ry="57.746"/>
        <path fill="#000" d="M78.8 57.746C78.8 28.686 97.525 4.637 121.9.598a44.92 44.92 0 0 0-3.367-.128c-27.819 0-50.367 25.856-50.367 57.745 0 31.89 22.548 57.746 50.367 57.746 2.436 0 4.868-.2 7.271-.598C99.552 113.376 78.8 88.343 78.8 57.746z" opacity=".1" style="mix-blend-mode:multiply"/>
        <path fill="#D45C34" d="M70.327 38.592l13.015.115 35.512 32.16L54.36 54.414c.088-8.8 7.225-15.872 15.967-15.822z"/>
        <path fill="#F7834D" d="M83.342 38.733l84.588.746c8.734.103 15.745 7.287 15.692 16.08l-64.781 15.36-47.28-16.35c.114-8.767 5.398-15.887 11.781-15.836z"/>
        <path fill="#D76842" d="M118.566 104.197L82.5 135.714l-13.015-.116c-8.734-.103-15.746-7.287-15.693-16.08l64.775-15.32z"/>
        <path fill="#F68E5D" d="M183.053 120.676l-64.487-16.479-47.53 15.514c-.076 8.76 5.112 15.977 11.5 16.035l84.589.746c8.724.029 15.837-7.034 15.928-15.816z"/>
        <path fill="#E6E5F3" d="M54.36 54.414l17.251.154 46.974 48.883L0 86.503c15.11-13.031 32.86-25.149 54.36-32.089z"/>
        <path fill="#FCF5FF" d="M31.653 86.78l86.894 16.723 118.84-14.89c-14.886-13.295-32.418-25.728-53.797-33.035l-111.992-1.01C55.811 61.554 42.77 73.716 31.653 86.78z"/>
        <path fill="#CBCAD6" d="M31.653 86.78l39.377 32.912-17.251-.155C32.419 112.217 14.887 99.791 0 86.503l31.653.277z"/>
        <path fill="#E6E5F3" d="M237.413 88.587L31.678 86.78c10.862 13.256 23.717 25.637 39.377 32.912l112.024.984c21.474-6.947 39.224-19.052 54.334-32.09z"/>
    </g>
</svg>
