<svg xmlns="http://www.w3.org/2000/svg" xmlns:xlink="http://www.w3.org/1999/xlink" width="1086" height="262" viewBox="0 0 1086 262">
    <defs>
        <path id="a" d="M0 0h1160v302H0z"/>
        <path id="c" d="M0 1077.997V.137h1567.941v1077.86z"/>
    </defs>
    <g fill="none" fill-rule="evenodd" transform="translate(-35 -40)">
        <mask id="b" fill="#fff">
            <use xlink:href="#a"/>
        </mask>
        <g mask="url(#b)">
            <g transform="translate(-206 152)">
                <mask id="d" fill="#fff">
                    <use xlink:href="#c"/>
                </mask>
                <path fill="#88D3E6" d="M1567.945 539.1c0 297.677-351.044 538.897-783.842 538.897-433.047 0-784.107-241.22-784.107-538.897C-.004 241.374 351.056.137 784.103.137c432.798 0 783.842 241.237 783.842 538.963" mask="url(#d)"/>
            </g>
            <path fill="#5EC8DE" d="M1219 616.06C1219 853.52 938.39 1046 592.363 1046 246.361 1046-34 853.52-34 616.06-34 378.43 246.361 186 592.363 186 938.389 186 1219 378.43 1219 616.06"/>
        </g>
        <ellipse cx="364" cy="306" fill="#2BA4BE" mask="url(#b)" rx="47" ry="16"/>
        <ellipse cx="642.5" cy="233" fill="#2BA4BE" mask="url(#b)" rx="40.5" ry="14"/>
        <ellipse cx="230.295" cy="235.323" fill="#2BA4BE" mask="url(#b)" rx="25.943" ry="8.962" transform="rotate(-13 230.295 235.323)"/>
        <g mask="url(#b)">
            <path fill="#2BA4BE" fill-rule="nonzero" d="M527.482 172.115c.296 2.848-5.674 5.843-13.35 6.685-7.676.842-14.155-.756-14.44-3.627-.284-2.87 5.674-5.843 13.35-6.685 7.677-.842 14.143.779 14.45 3.633l-.01-.006z"/>
            <path fill="#7574B7" fill-rule="nonzero" d="M509.615 114.065S406.169 87.13 428.194 84.857c22.606-2.293 77.609-43.181 77.609-43.181l3.812 72.39z"/>
            <path stroke="#CCEBF4" stroke-linecap="round" stroke-linejoin="round" stroke-width="5.04" d="M513.202 171.192l-6.549-128.434"/>
            <path fill="#F3D55A" fill-rule="nonzero" d="M480.154 71.214l-10.9 1.57.118 12.048 2.445-.181c.195-.146.397-.281.605-.406.188-.111.382-.21.582-.293a3.837 3.837 0 0 1 1.192-.295l.358-.01.352.024.332.063.284.151c.268.113.512.276.718.482.233.236.424.511.565.815.17.377.294.776.367 1.187.095.525.145 1.06.148 1.597a8.183 8.183 0 0 1-.218 2.105 4.565 4.565 0 0 1-.682 1.557 3.081 3.081 0 0 1-1.086.966c-.44.228-.923.354-1.412.367l-.478-.016-.453-.065-.435-.119-.39-.207a3.909 3.909 0 0 1-.55-.292 4.58 4.58 0 0 1-.502-.406 5.692 5.692 0 0 1-.466-.498 8.68 8.68 0 0 1-.442-.587l-1.945 2.467c.193.279.406.542.62.781.212.246.437.479.675.698.232.218.479.42.737.606.267.168.546.316.835.444.435.218.895.382 1.37.49a6.415 6.415 0 0 0 1.58.163 7.014 7.014 0 0 0 2.947-.643 6.666 6.666 0 0 0 2.307-1.797 8.175 8.175 0 0 0 1.472-2.769c.346-1.14.508-2.326.479-3.51-.001-.896-.094-1.787-.279-2.658a8.523 8.523 0 0 0-.745-2.077 5.775 5.775 0 0 0-1.129-1.517 4.487 4.487 0 0 0-1.947-1.098 4.461 4.461 0 0 0-1.088-.152 4.744 4.744 0 0 0-1.283.146 5.345 5.345 0 0 0-.71.238 7.038 7.038 0 0 0-1.414.804l-.078-5.826 7.18-.914.395-3.491M498.029 69.317l-14.184 1.588.17 3.641 9.496-.885-6.886 21.305 4.001 1.525 7.609-23.624-.206-3.55"/>
        </g>
    </g>
</svg>
